<?xml version="1.0" encoding="UTF-8" standalone="no"?>
<!-- Created with Inkscape (http://www.inkscape.org/) -->

<svg
   xmlns:dc="http://purl.org/dc/elements/1.1/"
   xmlns:cc="http://creativecommons.org/ns#"
   xmlns:rdf="http://www.w3.org/1999/02/22-rdf-syntax-ns#"
   xmlns:svg="http://www.w3.org/2000/svg"
   xmlns="http://www.w3.org/2000/svg"
   xmlns:xlink="http://www.w3.org/1999/xlink"
   xmlns:sodipodi="http://sodipodi.sourceforge.net/DTD/sodipodi-0.dtd"
   xmlns:inkscape="http://www.inkscape.org/namespaces/inkscape"
   width="2710.7197"
   height="1008.7361"
   id="svg17895"
   version="1.1"
   inkscape:version="0.48.4 r9939"
   sodipodi:docname="drawing-drop.pdf">
  <defs
     id="defs17897">
    <marker
       style="overflow:visible"
       id="Arrow1Mend"
       refX="0"
       refY="0"
       orient="auto"
       inkscape:stockid="Arrow1Mend">
      <path
         inkscape:connector-curvature="0"
         transform="matrix(-0.4,0,0,-0.4,-4,0)"
         style="fill-rule:evenodd;stroke:#000000;stroke-width:1pt"
         d="M 0,0 5,-5 -12.5,0 5,5 0,0 z"
         id="path12603" />
    </marker>
    <marker
       style="overflow:visible"
       id="Arrow1Mstart"
       refX="0"
       refY="0"
       orient="auto"
       inkscape:stockid="Arrow1Mstart">
      <path
         inkscape:connector-curvature="0"
         transform="matrix(0.4,0,0,0.4,4,0)"
         style="fill-rule:evenodd;stroke:#000000;stroke-width:1pt"
         d="M 0,0 5,-5 -12.5,0 5,5 0,0 z"
         id="path12600" />
    </marker>
    <marker
       style="overflow:visible"
       id="marker17748"
       refX="0"
       refY="0"
       orient="auto"
       inkscape:stockid="Arrow1Mend">
      <path
         inkscape:connector-curvature="0"
         transform="matrix(-0.4,0,0,-0.4,-4,0)"
         style="fill-rule:evenodd;stroke:#000000;stroke-width:1pt"
         d="M 0,0 5,-5 -12.5,0 5,5 0,0 z"
         id="path17750" />
    </marker>
    <radialGradient
       r="523.18298"
       fy="-1694.0359"
       fx="846.56323"
       cy="-1694.0359"
       cx="846.56323"
       gradientTransform="matrix(1,0,0,0.69452501,1341.7143,-11.44418)"
       gradientUnits="userSpaceOnUse"
       id="radialGradient15621"
       xlink:href="#linearGradient12556"
       inkscape:collect="always" />
    <linearGradient
       id="linearGradient12556">
      <stop
         id="stop12558"
         offset="0"
         style="stop-color:#ffffff;stop-opacity:1;" />
      <stop
         id="stop12560"
         offset="1"
         style="stop-color:#35a8e3;stop-opacity:1;" />
    </linearGradient>
    <radialGradient
       r="523.18298"
       fy="-1694.0359"
       fx="846.56323"
       cy="-1694.0359"
       cx="846.56323"
       gradientTransform="matrix(1,0,0,0.69452501,0,-476.01561)"
       gradientUnits="userSpaceOnUse"
       id="radialGradient15637"
       xlink:href="#linearGradient12556"
       inkscape:collect="always" />
    <linearGradient
       id="linearGradient17757">
      <stop
         id="stop17759"
         offset="0"
         style="stop-color:#ffffff;stop-opacity:1;" />
      <stop
         id="stop17761"
         offset="1"
         style="stop-color:#35a8e3;stop-opacity:1;" />
    </linearGradient>
    <marker
       style="overflow:visible"
       id="marker17763"
       refX="0"
       refY="0"
       orient="auto"
       inkscape:stockid="Arrow1Mend">
      <path
         inkscape:connector-curvature="0"
         transform="matrix(-0.4,0,0,-0.4,-4,0)"
         style="fill-rule:evenodd;stroke:#000000;stroke-width:1pt"
         d="M 0,0 5,-5 -12.5,0 5,5 0,0 z"
         id="path17765" />
    </marker>
    <clipPath
       clipPathUnits="userSpaceOnUse"
       id="clipPath10487">
      <path
         inkscape:connector-curvature="0"
         d="m 60.111562,55.26 286.928438,0 0,141.48 -286.928438,0 0,-141.48 z"
         id="path10489" />
    </clipPath>
    <clipPath
       clipPathUnits="userSpaceOnUse"
       id="clipPath10497">
      <path
         inkscape:connector-curvature="0"
         d="m 60.111562,55.26 286.928438,0 0,141.48 -286.928438,0 0,-141.48 z"
         id="path10499" />
    </clipPath>
    <clipPath
       clipPathUnits="userSpaceOnUse"
       id="clipPath10507">
      <path
         inkscape:connector-curvature="0"
         d="m 60.111562,55.26 286.928438,0 0,141.48 -286.928438,0 0,-141.48 z"
         id="path10509" />
    </clipPath>
    <clipPath
       clipPathUnits="userSpaceOnUse"
       id="clipPath10517">
      <path
         inkscape:connector-curvature="0"
         d="m 60.111562,55.26 286.928438,0 0,141.48 -286.928438,0 0,-141.48 z"
         id="path10519" />
    </clipPath>
    <clipPath
       clipPathUnits="userSpaceOnUse"
       id="clipPath10527">
      <path
         inkscape:connector-curvature="0"
         d="m 60.111562,55.26 286.928438,0 0,141.48 -286.928438,0 0,-141.48 z"
         id="path10529" />
    </clipPath>
    <clipPath
       clipPathUnits="userSpaceOnUse"
       id="clipPath10537">
      <path
         inkscape:connector-curvature="0"
         d="m 60.111562,55.26 286.928438,0 0,141.48 -286.928438,0 0,-141.48 z"
         id="path10539" />
    </clipPath>
    <clipPath
       clipPathUnits="userSpaceOnUse"
       id="clipPath10547">
      <path
         inkscape:connector-curvature="0"
         d="m 60.111562,55.26 286.928438,0 0,141.48 -286.928438,0 0,-141.48 z"
         id="path10549" />
    </clipPath>
    <clipPath
       clipPathUnits="userSpaceOnUse"
       id="clipPath10557">
      <path
         inkscape:connector-curvature="0"
         d="m 60.111562,55.26 286.928438,0 0,141.48 -286.928438,0 0,-141.48 z"
         id="path10559" />
    </clipPath>
    <clipPath
       clipPathUnits="userSpaceOnUse"
       id="clipPath10567">
      <path
         inkscape:connector-curvature="0"
         d="m 60.111562,55.26 286.928438,0 0,141.48 -286.928438,0 0,-141.48 z"
         id="path10569" />
    </clipPath>
    <clipPath
       clipPathUnits="userSpaceOnUse"
       id="clipPath10577">
      <path
         inkscape:connector-curvature="0"
         d="m 60.111562,55.26 286.928438,0 0,141.48 -286.928438,0 0,-141.48 z"
         id="path10579" />
    </clipPath>
  </defs>
  <sodipodi:namedview
     id="base"
     pagecolor="#ffffff"
     bordercolor="#666666"
     borderopacity="1.0"
     inkscape:pageopacity="0.0"
     inkscape:pageshadow="2"
     inkscape:zoom="0.35"
     inkscape:cx="994.61241"
     inkscape:cy="19.20058"
     inkscape:document-units="px"
     inkscape:current-layer="layer1"
     showgrid="false"
     fit-margin-top="0"
     fit-margin-left="0"
     fit-margin-right="0"
     fit-margin-bottom="0"
     inkscape:window-width="1918"
     inkscape:window-height="1061"
     inkscape:window-x="0"
     inkscape:window-y="0"
     inkscape:window-maximized="0" />
  <metadata
     id="metadata17900">
    <rdf:RDF>
      <cc:Work
         rdf:about="">
        <dc:format>image/svg+xml</dc:format>
        <dc:type
           rdf:resource="http://purl.org/dc/dcmitype/StillImage" />
        <dc:title></dc:title>
      </cc:Work>
    </rdf:RDF>
  </metadata>
  <g
     inkscape:label="Layer 1"
     inkscape:groupmode="layer"
     id="layer1"
     transform="translate(1156.9473,229.1382)">
    <g
       transform="matrix(2.558343,0,0,2.558343,-753.33386,6005.3765)"
       id="g11625">
      <path
         inkscape:connector-curvature="0"
         d="m 455.85374,-2087.4271 358.66055,0 0,-176.85 -358.66055,0 0,176.85 z"
         style="fill:#ffffff;fill-opacity:1;fill-rule:nonzero;stroke:none"
         id="path10481" />
      <g
         id="g10483"
         transform="matrix(1.25,0,0,-1.25,380.71429,-2018.3521)">
        <g
           id="g10485"
           clip-path="url(#clipPath10487)">
          <path
             inkscape:connector-curvature="0"
             d="m 60.111562,126 9.768511,0.093 9.768479,0.44149 9.76851,-0.2101 9.768511,0.0525 9.768507,-0.22198 9.76848,-0.12167 9.76851,0.447 9.76851,2.9e-4 9.76851,0.18067 9.76848,-0.38992 9.76851,0.0961 9.76851,0.22043 9.76848,-0.56337 9.76851,0.0134 9.76851,0.33686 9.76851,0.10003 9.76848,-0.46929 9.76851,0.26577 9.76851,-0.22397 9.76848,0.24809 9.76851,0.1905 9.76851,-0.0692 9.76851,0.2415 9.76848,-0.0596 9.76851,-0.22587 9.76851,-0.30765 9.76851,0.39749 9.76848,-0.16829 9.76851,0.20175"
             style="fill:none;stroke:#0000ff;stroke-width:2.5;stroke-linecap:square;stroke-linejoin:round;stroke-miterlimit:10;stroke-opacity:1;stroke-dasharray:none"
             id="path10491" />
        </g>
      </g>
      <g
         id="g10493"
         transform="matrix(1.25,0,0,-1.25,380.71429,-2018.3521)">
        <g
           id="g10495"
           clip-path="url(#clipPath10497)">
          <path
             inkscape:connector-curvature="0"
             d="m 60.111562,126.9378 9.768511,-0.11347 9.768479,-0.1337 9.76851,-0.15117 9.768511,-0.16079 9.768507,-0.16397 9.76848,-0.15959 9.76851,-0.14806 9.76851,-0.13002 9.76851,-0.10597 9.76848,-0.0771 9.76851,-0.0448 9.76851,-0.0102 9.76848,0.0246 9.76851,0.0583 9.76851,0.0893 9.76851,0.11608 9.76848,0.13766 9.76851,0.15301 9.76851,0.16157 9.76848,0.16306 9.76851,0.15747 9.76851,0.14508 9.76851,0.12663 9.76848,0.10292 9.76851,0.0743 9.76851,0.0436 9.76851,0.009 9.76848,-0.0223 9.76851,-0.0571"
             style="fill:none;stroke:#008000;stroke-width:2.5;stroke-linecap:square;stroke-linejoin:round;stroke-miterlimit:10;stroke-opacity:1;stroke-dasharray:none"
             id="path10501" />
        </g>
      </g>
      <g
         id="g10503"
         transform="matrix(1.25,0,0,-1.25,380.71429,-2018.3521)">
        <g
           id="g10505"
           clip-path="url(#clipPath10507)">
          <path
             inkscape:connector-curvature="0"
             d="m 60.111562,128.38479 9.768511,-0.36396 9.768479,-0.44135 9.76851,-0.49985 9.768511,-0.5384 9.768507,-0.55446 9.76848,-0.54646 9.76851,-0.51351 9.76851,-0.45599 9.76851,-0.37541 9.76848,-0.27554 9.76851,-0.16086 9.76851,-0.0375 9.76848,0.0879 9.76851,0.20861 9.76851,0.31791 9.76851,0.41043 9.76848,0.48202 9.76851,0.52992 9.76851,0.55283 9.76848,0.55106 9.76851,0.52567 9.76851,0.47884 9.76851,0.41284 9.76848,0.33198 9.76851,0.23953 9.76851,0.13794 9.76851,0.0318 9.76848,-0.0783 9.76851,-0.17925"
             style="fill:none;stroke:#ff0000;stroke-width:2.5;stroke-linecap:square;stroke-linejoin:round;stroke-miterlimit:10;stroke-opacity:1;stroke-dasharray:none"
             id="path10511" />
        </g>
      </g>
      <g
         id="g10513"
         transform="matrix(1.25,0,0,-1.25,380.71429,-2018.3521)">
        <g
           id="g10515"
           clip-path="url(#clipPath10517)">
          <path
             inkscape:connector-curvature="0"
             d="m 60.111562,133.45267 9.768511,-1.11147 9.768479,-1.37624 9.76851,-1.60736 9.768511,-1.79722 9.768507,-1.93 9.76848,-1.98984 9.76851,-1.95872 9.76851,-1.82057 9.76851,-1.56377 9.76848,-1.18851 9.76851,-0.71122 9.76851,-0.16744 9.76848,0.39261 9.76851,0.91495 9.76851,1.35432 9.76851,1.68283 9.76848,1.89095 9.76851,1.98419 9.76851,1.9764 9.76848,1.88501 9.76851,1.72726 9.76851,1.51886 9.76851,1.27261 9.76848,0.99878 9.76851,0.70712 9.76851,0.4013 9.76851,0.0932 9.76848,-0.2222 9.76851,-0.52637"
             style="fill:none;stroke:#00bfbf;stroke-width:2.5;stroke-linecap:square;stroke-linejoin:round;stroke-miterlimit:10;stroke-opacity:1;stroke-dasharray:none"
             id="path10521" />
        </g>
      </g>
      <g
         id="g10523"
         transform="matrix(1.25,0,0,-1.25,380.71429,-2018.3521)">
        <g
           id="g10525"
           clip-path="url(#clipPath10527)">
          <path
             inkscape:connector-curvature="0"
             d="m 60.111562,138.69995 9.768511,-1.62525 9.768479,-2.06009 9.76851,-2.49061 9.768511,-2.90119 9.768507,-3.27519 9.76848,-3.58235 9.76851,-3.77539 9.76851,-3.78551 9.76851,-3.52144 9.76848,-2.88697 9.76851,-1.83407 9.76851,-0.44461 9.76848,1.03613 9.76851,2.31002 9.76851,3.19356 9.76851,3.66744 9.76848,3.80829 9.76851,3.71406 9.76851,3.46789 9.76848,3.12918 9.76851,2.73764 9.76851,2.31765 9.76851,1.88445 9.76848,1.4467 9.76851,1.00592 9.76851,0.5696 9.76851,0.12818 9.76848,-0.3039 9.76851,-0.74814"
             style="fill:none;stroke:#bf00bf;stroke-width:2.5;stroke-linecap:square;stroke-linejoin:round;stroke-miterlimit:10;stroke-opacity:1;stroke-dasharray:none"
             id="path10531" />
        </g>
      </g>
      <g
         id="g10533"
         transform="matrix(1.25,0,0,-1.25,380.71429,-2018.3521)">
        <g
           id="g10535"
           clip-path="url(#clipPath10537)">
          <path
             inkscape:connector-curvature="0"
             d="m 60.111562,143.50744 9.768511,-1.63798 9.768479,-2.13416 9.76851,-2.66555 9.768511,-3.25263 9.768507,-3.90987 9.76848,-4.65808 9.76851,-5.51751 9.76851,-6.49556 9.76851,-7.53707 9.76848,-8.348589 9.76851,-7.792506 9.76851,-2.73495 9.76848,5.629207 9.76851,8.341798 9.76851,8.08785 9.76851,7.11368 9.76848,6.08357 9.76851,5.15355 9.76851,4.3421 9.76848,3.6337 9.76851,3.00744 9.76851,2.4447 9.76851,1.92929 9.76848,1.44876 9.76851,0.99588 9.76851,0.55474 9.76851,0.13009 9.76848,-0.30446 9.76851,-0.72841"
             style="fill:none;stroke:#bfbf00;stroke-width:2.5;stroke-linecap:square;stroke-linejoin:round;stroke-miterlimit:10;stroke-opacity:1;stroke-dasharray:none"
             id="path10541" />
        </g>
      </g>
      <g
         id="g10543"
         transform="matrix(1.25,0,0,-1.25,380.71429,-2018.3521)">
        <g
           id="g10545"
           clip-path="url(#clipPath10547)">
          <path
             inkscape:connector-curvature="0"
             d="m 60.111562,144.10314 9.768511,-1.56349 9.768479,-2.05698 9.76851,-2.61915 9.768511,-3.24626 9.768507,-3.87676 9.76848,-4.37301 9.76851,-4.58925 9.76851,-4.66134 9.76851,-5.62978 9.76848,-10.17128 9.76851,-22.904406 9.76851,-21.736563 9.76848,27.761418 9.76851,21.139521 9.76851,9.60161 9.76851,5.04206 9.76848,3.91574 9.76851,3.98026 9.76851,4.00565 9.76848,3.67424 9.76851,3.10251 9.76851,2.47081 9.76851,1.88734 9.76848,1.38042 9.76851,0.93391 9.76851,0.51952 9.76851,0.11587 9.76848,-0.28798 9.76851,-0.69708"
             style="fill:none;stroke:#000000;stroke-width:2.5;stroke-linecap:square;stroke-linejoin:round;stroke-miterlimit:10;stroke-opacity:1;stroke-dasharray:none"
             id="path10551" />
        </g>
      </g>
      <g
         id="g10553"
         transform="matrix(1.25,0,0,-1.25,380.71429,-2018.3521)">
        <g
           id="g10555"
           clip-path="url(#clipPath10557)">
          <path
             inkscape:connector-curvature="0"
             d="m 60.111562,143.51013 9.768511,-2.05818 9.768479,-2.04035 9.76851,-1.57008 9.768511,-0.75989 9.768507,-0.0674 9.76848,-0.28848 9.76851,-2.36484 9.76851,-7.19546 9.76851,-15.64627 9.76848,-28.48134 9.76851,-26.362959 9.76851,-7.1e-5 9.76848,-0.0012 9.76851,32.739534 9.76851,27.095046 9.76851,14.87096 9.76848,6.3915 9.76851,1.46029 9.76851,-0.55425 9.76848,-0.53755 9.76851,0.44629 9.76851,1.46446 9.76851,2.00817 9.76848,1.99855 9.76851,1.58493 9.76851,0.95527 9.76851,0.24483 9.76848,-0.47198 9.76851,-1.14669"
             style="fill:none;stroke:#0000ff;stroke-width:2.5;stroke-linecap:square;stroke-linejoin:round;stroke-miterlimit:10;stroke-opacity:1;stroke-dasharray:none"
             id="path10561" />
        </g>
      </g>
      <g
         id="g10563"
         transform="matrix(1.25,0,0,-1.25,380.71429,-2018.3521)">
        <g
           id="g10565"
           clip-path="url(#clipPath10567)">
          <path
             inkscape:connector-curvature="0"
             d="m 60.111562,142.74458 9.768511,-1.29539 9.768479,-0.35844 9.76851,1.17563 9.768511,2.5685 9.768507,2.62254 9.76848,0.15733 9.76851,-5.6401 9.76851,-15.22459 9.76851,-28.710682 9.76848,-41.364507 9.76851,0.02016 9.76851,0.01111 9.76848,-0.01026 9.76851,-0.02122 9.76851,56.868589 9.76851,24.63316 9.76848,7.16284 9.76851,0.39742 9.76851,-1.00656 9.76848,-1.00882 9.76851,-0.85631 9.76851,-0.4255 9.76851,0.25332 9.76848,0.83586 9.76851,1.04993 9.76851,0.84074 9.76851,0.30015 9.76848,-0.41107 9.76851,-1.08777"
             style="fill:none;stroke:#008000;stroke-width:2.5;stroke-linecap:square;stroke-linejoin:round;stroke-miterlimit:10;stroke-opacity:1;stroke-dasharray:none"
             id="path10571" />
        </g>
      </g>
      <g
         id="g10573"
         transform="matrix(1.25,0,0,-1.25,380.71429,-2018.3521)">
        <g
           id="g10575"
           clip-path="url(#clipPath10577)">
          <path
             inkscape:connector-curvature="0"
             d="m 60.111562,184.44935 9.768511,-0.12104 9.768479,-3.28431 9.76851,-8.21221 9.768511,-15.04321 9.768507,-23.91479 9.76848,-34.780315 9.76851,-42.418604 9.76851,-7.1e-5 9.76851,7.1e-5 9.76848,0 9.76851,0 9.76851,0 9.76848,0 9.76851,0 9.76851,0 9.76851,-2.12e-4 9.76848,7e-5 9.76851,48.219071 9.76851,35.85231 9.76848,23.27869 9.76851,13.4991 9.76851,6.34602 9.76851,1.57219 9.76848,-1.08706 9.76851,-1.97308 9.76851,-1.54602 9.76851,-0.38185 9.76848,0.8875 9.76851,1.66168"
             style="fill:none;stroke:#000000;stroke-width:2.5;stroke-linecap:square;stroke-linejoin:round;stroke-miterlimit:10;stroke-opacity:1;stroke-dasharray:none"
             id="path10581" />
        </g>
      </g>
      <g
         id="g10583"
         transform="matrix(1.25,0,0,-1.25,380.71429,-2018.3521)">
        <path
           inkscape:connector-curvature="0"
           d="m 60.111562,55.26 0,4"
           style="fill:#000000;fill-opacity:1;fill-rule:nonzero;stroke:#000000;stroke-width:0.5;stroke-linecap:butt;stroke-linejoin:round;stroke-miterlimit:10;stroke-opacity:1;stroke-dasharray:none"
           id="path10585" />
        <path
           inkscape:connector-curvature="0"
           d="m 60.111562,196.74 0,-4"
           style="fill:#000000;fill-opacity:1;fill-rule:nonzero;stroke:#000000;stroke-width:0.5;stroke-linecap:butt;stroke-linejoin:round;stroke-miterlimit:10;stroke-opacity:1;stroke-dasharray:none"
           id="path10587" />
        <text
           transform="matrix(1,0,0,-1,57.088125,42.135)"
           id="text10589">
          <tspan
             style="font-size:12px;font-variant:normal;font-weight:normal;writing-mode:lr-tb;fill:#000000;fill-opacity:1;fill-rule:nonzero;stroke:none;font-family:DejaVu Sans;-inkscape-font-specification:DejaVuSans"
             x="0"
             y="0"
             id="tspan10591">0</tspan>
        </text>
        <path
           inkscape:connector-curvature="0"
           d="m 123.87344,55.26 0,4"
           style="fill:#000000;fill-opacity:1;fill-rule:nonzero;stroke:#000000;stroke-width:0.5;stroke-linecap:butt;stroke-linejoin:round;stroke-miterlimit:10;stroke-opacity:1;stroke-dasharray:none"
           id="path10593" />
        <path
           inkscape:connector-curvature="0"
           d="m 123.87344,196.74 0,-4"
           style="fill:#000000;fill-opacity:1;fill-rule:nonzero;stroke:#000000;stroke-width:0.5;stroke-linecap:butt;stroke-linejoin:round;stroke-miterlimit:10;stroke-opacity:1;stroke-dasharray:none"
           id="path10595" />
        <text
           transform="matrix(1,0,0,-1,121.09219,42.135)"
           id="text10597">
          <tspan
             style="font-size:12px;font-variant:normal;font-weight:normal;writing-mode:lr-tb;fill:#000000;fill-opacity:1;fill-rule:nonzero;stroke:none;font-family:DejaVu Sans;-inkscape-font-specification:DejaVuSans"
             x="0"
             y="0"
             id="tspan10599">2</tspan>
        </text>
        <path
           inkscape:connector-curvature="0"
           d="m 187.63531,55.26 0,4"
           style="fill:#000000;fill-opacity:1;fill-rule:nonzero;stroke:#000000;stroke-width:0.5;stroke-linecap:butt;stroke-linejoin:round;stroke-miterlimit:10;stroke-opacity:1;stroke-dasharray:none"
           id="path10601" />
        <path
           inkscape:connector-curvature="0"
           d="m 187.63531,196.74 0,-4"
           style="fill:#000000;fill-opacity:1;fill-rule:nonzero;stroke:#000000;stroke-width:0.5;stroke-linecap:butt;stroke-linejoin:round;stroke-miterlimit:10;stroke-opacity:1;stroke-dasharray:none"
           id="path10603" />
        <text
           transform="matrix(1,0,0,-1,184.44781,42.135)"
           id="text10605">
          <tspan
             style="font-size:12px;font-variant:normal;font-weight:normal;writing-mode:lr-tb;fill:#000000;fill-opacity:1;fill-rule:nonzero;stroke:none;font-family:DejaVu Sans;-inkscape-font-specification:DejaVuSans"
             x="0"
             y="0"
             id="tspan10607">4</tspan>
        </text>
        <path
           inkscape:connector-curvature="0"
           d="m 251.39719,55.26 0,4"
           style="fill:#000000;fill-opacity:1;fill-rule:nonzero;stroke:#000000;stroke-width:0.5;stroke-linecap:butt;stroke-linejoin:round;stroke-miterlimit:10;stroke-opacity:1;stroke-dasharray:none"
           id="path10609" />
        <path
           inkscape:connector-curvature="0"
           d="m 251.39719,196.74 0,-4"
           style="fill:#000000;fill-opacity:1;fill-rule:nonzero;stroke:#000000;stroke-width:0.5;stroke-linecap:butt;stroke-linejoin:round;stroke-miterlimit:10;stroke-opacity:1;stroke-dasharray:none"
           id="path10611" />
        <text
           transform="matrix(1,0,0,-1,248.38156,42.135)"
           id="text10613">
          <tspan
             style="font-size:12px;font-variant:normal;font-weight:normal;writing-mode:lr-tb;fill:#000000;fill-opacity:1;fill-rule:nonzero;stroke:none;font-family:DejaVu Sans;-inkscape-font-specification:DejaVuSans"
             x="0"
             y="0"
             id="tspan10615">6</tspan>
        </text>
        <path
           inkscape:connector-curvature="0"
           d="m 315.15906,55.26 0,4"
           style="fill:#000000;fill-opacity:1;fill-rule:nonzero;stroke:#000000;stroke-width:0.5;stroke-linecap:butt;stroke-linejoin:round;stroke-miterlimit:10;stroke-opacity:1;stroke-dasharray:none"
           id="path10617" />
        <path
           inkscape:connector-curvature="0"
           d="m 315.15906,196.74 0,-4"
           style="fill:#000000;fill-opacity:1;fill-rule:nonzero;stroke:#000000;stroke-width:0.5;stroke-linecap:butt;stroke-linejoin:round;stroke-miterlimit:10;stroke-opacity:1;stroke-dasharray:none"
           id="path10619" />
        <text
           transform="matrix(1,0,0,-1,312.15906,42.135)"
           id="text10621">
          <tspan
             style="font-size:12px;font-variant:normal;font-weight:normal;writing-mode:lr-tb;fill:#000000;fill-opacity:1;fill-rule:nonzero;stroke:none;font-family:DejaVu Sans;-inkscape-font-specification:DejaVuSans"
             x="0"
             y="0"
             id="tspan10623">8</tspan>
        </text>
        <text
           transform="matrix(1,0,0,-1,197.33359,19.431875)"
           id="text10625">
          <tspan
             style="font-size:20px;font-variant:normal;font-weight:normal;writing-mode:lr-tb;fill:#000000;fill-opacity:1;fill-rule:nonzero;stroke:none;font-family:DejaVu Sans;-inkscape-font-specification:DejaVuSans"
             x="0"
             y="0"
             id="tspan10627">X</tspan>
        </text>
        <path
           inkscape:connector-curvature="0"
           d="m 60.111562,55.26 4.000001,0"
           style="fill:#000000;fill-opacity:1;fill-rule:nonzero;stroke:#000000;stroke-width:0.5;stroke-linecap:butt;stroke-linejoin:round;stroke-miterlimit:10;stroke-opacity:1;stroke-dasharray:none"
           id="path10629" />
        <path
           inkscape:connector-curvature="0"
           d="m 347.04,55.26 -4,0"
           style="fill:#000000;fill-opacity:1;fill-rule:nonzero;stroke:#000000;stroke-width:0.5;stroke-linecap:butt;stroke-linejoin:round;stroke-miterlimit:10;stroke-opacity:1;stroke-dasharray:none"
           id="path10631" />
        <text
           transform="matrix(1,0,0,-1,38.611562,51.9475)"
           id="text10633">
          <tspan
             style="font-size:12px;font-variant:normal;font-weight:normal;writing-mode:lr-tb;fill:#000000;fill-opacity:1;fill-rule:nonzero;stroke:none;font-family:DejaVu Sans;-inkscape-font-specification:DejaVuSans"
             x="0 7.632 11.448"
             y="0"
             sodipodi:role="line"
             id="tspan10635">0.0</tspan>
        </text>
        <path
           inkscape:connector-curvature="0"
           d="m 60.111562,90.63 4.000001,0"
           style="fill:#000000;fill-opacity:1;fill-rule:nonzero;stroke:#000000;stroke-width:0.5;stroke-linecap:butt;stroke-linejoin:round;stroke-miterlimit:10;stroke-opacity:1;stroke-dasharray:none"
           id="path10637" />
        <path
           inkscape:connector-curvature="0"
           d="m 347.04,90.63 -4,0"
           style="fill:#000000;fill-opacity:1;fill-rule:nonzero;stroke:#000000;stroke-width:0.5;stroke-linecap:butt;stroke-linejoin:round;stroke-miterlimit:10;stroke-opacity:1;stroke-dasharray:none"
           id="path10639" />
        <text
           transform="matrix(1,0,0,-1,38.861562,87.3175)"
           id="text10641">
          <tspan
             style="font-size:12px;font-variant:normal;font-weight:normal;writing-mode:lr-tb;fill:#000000;fill-opacity:1;fill-rule:nonzero;stroke:none;font-family:DejaVu Sans;-inkscape-font-specification:DejaVuSans"
             x="0 7.632 11.448"
             y="0"
             sodipodi:role="line"
             id="tspan10643">0.5</tspan>
        </text>
        <path
           inkscape:connector-curvature="0"
           d="m 60.111562,126 4.000001,0"
           style="fill:#000000;fill-opacity:1;fill-rule:nonzero;stroke:#000000;stroke-width:0.5;stroke-linecap:butt;stroke-linejoin:round;stroke-miterlimit:10;stroke-opacity:1;stroke-dasharray:none"
           id="path10645" />
        <path
           inkscape:connector-curvature="0"
           d="m 347.04,126 -4,0"
           style="fill:#000000;fill-opacity:1;fill-rule:nonzero;stroke:#000000;stroke-width:0.5;stroke-linecap:butt;stroke-linejoin:round;stroke-miterlimit:10;stroke-opacity:1;stroke-dasharray:none"
           id="path10647" />
        <text
           transform="matrix(1,0,0,-1,39.127187,122.6875)"
           id="text10649">
          <tspan
             style="font-size:12px;font-variant:normal;font-weight:normal;writing-mode:lr-tb;fill:#000000;fill-opacity:1;fill-rule:nonzero;stroke:none;font-family:DejaVu Sans;-inkscape-font-specification:DejaVuSans"
             x="0 7.632 11.448"
             y="0"
             sodipodi:role="line"
             id="tspan10651">1.0</tspan>
        </text>
        <path
           inkscape:connector-curvature="0"
           d="m 60.111562,161.37 4.000001,0"
           style="fill:#000000;fill-opacity:1;fill-rule:nonzero;stroke:#000000;stroke-width:0.5;stroke-linecap:butt;stroke-linejoin:round;stroke-miterlimit:10;stroke-opacity:1;stroke-dasharray:none"
           id="path10653" />
        <path
           inkscape:connector-curvature="0"
           d="m 347.04,161.37 -4,0"
           style="fill:#000000;fill-opacity:1;fill-rule:nonzero;stroke:#000000;stroke-width:0.5;stroke-linecap:butt;stroke-linejoin:round;stroke-miterlimit:10;stroke-opacity:1;stroke-dasharray:none"
           id="path10655" />
        <text
           transform="matrix(1,0,0,-1,39.377187,158.0575)"
           id="text10657">
          <tspan
             style="font-size:12px;font-variant:normal;font-weight:normal;writing-mode:lr-tb;fill:#000000;fill-opacity:1;fill-rule:nonzero;stroke:none;font-family:DejaVu Sans;-inkscape-font-specification:DejaVuSans"
             x="0 7.632 11.448"
             y="0"
             sodipodi:role="line"
             id="tspan10659">1.5</tspan>
        </text>
        <path
           inkscape:connector-curvature="0"
           d="m 60.111562,196.74 4.000001,0"
           style="fill:#000000;fill-opacity:1;fill-rule:nonzero;stroke:#000000;stroke-width:0.5;stroke-linecap:butt;stroke-linejoin:round;stroke-miterlimit:10;stroke-opacity:1;stroke-dasharray:none"
           id="path10661" />
        <path
           inkscape:connector-curvature="0"
           d="m 347.04,196.74 -4,0"
           style="fill:#000000;fill-opacity:1;fill-rule:nonzero;stroke:#000000;stroke-width:0.5;stroke-linecap:butt;stroke-linejoin:round;stroke-miterlimit:10;stroke-opacity:1;stroke-dasharray:none"
           id="path10663" />
        <text
           transform="matrix(1,0,0,-1,38.689687,193.4275)"
           id="text10665">
          <tspan
             style="font-size:12px;font-variant:normal;font-weight:normal;writing-mode:lr-tb;fill:#000000;fill-opacity:1;fill-rule:nonzero;stroke:none;font-family:DejaVu Sans;-inkscape-font-specification:DejaVuSans"
             x="0 7.632 11.448"
             y="0"
             sodipodi:role="line"
             id="tspan10667">2.0</tspan>
        </text>
        <text
           transform="matrix(0,1,1,0,29.455312,120.44531)"
           id="text10669">
          <tspan
             style="font-size:20px;font-variant:normal;font-weight:normal;writing-mode:lr-tb;fill:#000000;fill-opacity:1;fill-rule:nonzero;stroke:none;font-family:DejaVu Sans;-inkscape-font-specification:DejaVuSans"
             x="0"
             y="0"
             id="tspan10671">H</tspan>
        </text>
        <path
           inkscape:connector-curvature="0"
           d="m 60.111562,196.74 286.928438,0"
           style="fill:none;stroke:#000000;stroke-width:1;stroke-linecap:butt;stroke-linejoin:round;stroke-miterlimit:10;stroke-opacity:1;stroke-dasharray:none"
           id="path10673" />
        <path
           inkscape:connector-curvature="0"
           d="m 347.04,55.26 0,141.48"
           style="fill:none;stroke:#000000;stroke-width:1;stroke-linecap:butt;stroke-linejoin:round;stroke-miterlimit:10;stroke-opacity:1;stroke-dasharray:none"
           id="path10675" />
        <path
           inkscape:connector-curvature="0"
           d="M 60.111562,55.26 347.04,55.26"
           style="fill:none;stroke:#000000;stroke-width:1;stroke-linecap:butt;stroke-linejoin:round;stroke-miterlimit:10;stroke-opacity:1;stroke-dasharray:none"
           id="path10677" />
        <path
           inkscape:connector-curvature="0"
           d="m 60.111562,55.26 0,141.48"
           style="fill:none;stroke:#000000;stroke-width:1;stroke-linecap:butt;stroke-linejoin:round;stroke-miterlimit:10;stroke-opacity:1;stroke-dasharray:none"
           id="path10679" />
      </g>
    </g>
    <g
       transform="matrix(0.99322024,0,0,0.99322024,-1560.2568,1790.0527)"
       id="g15623">
      <path
         style="fill:url(#radialGradient15637);fill-opacity:1;stroke:none"
         d="m 1535.291,-1452.0593 c 2.2299,67.189 -17.8338,170.0931 -43.1208,217.8451 -25.2872,47.7519 -69.9686,-42.0806 -140.5318,-36.5484 -55.7313,4.3694 -74.8404,41.0503 -137.3461,56.4061 -62.5057,15.3556 -133.5455,-42.5573 -205.7527,-40.1609 -72.20726,2.3964 -107.14528,69.544 -169.77437,58.3414 -62.62909,-11.2028 -72.32988,-83.4204 -155.89898,-69.5437 -54.29666,9.016 -113.28298,86.1673 -140.92339,40.172 -27.64041,-45.9954 -50.36423,-124.6097 -52.59411,-191.7987 -8.91951,-268.756 217.99195,-494.3964 506.82088,-503.982 288.82897,-9.5857 530.20187,200.5132 539.12137,469.2691 z"
         id="path12553"
         inkscape:connector-curvature="0"
         sodipodi:nodetypes="sssssssssss" />
      <rect
         style="fill:#966464;fill-opacity:1;stroke:none"
         id="rect12564"
         width="1205.0007"
         height="157.79771"
         x="406.07101"
         y="-1175.1499" />
      <rect
         y="1171.6378"
         x="408.57144"
         height="854.28571"
         width="1199.9999"
         id="rect12566"
         style="fill:none;stroke:#666666;stroke-width:5;stroke-miterlimit:4;stroke-opacity:1;stroke-dasharray:none"
         transform="scale(1,-1)" />
      <path
         style="fill:none;stroke:#666666;stroke-width:5;stroke-linecap:butt;stroke-linejoin:miter;stroke-miterlimit:4;stroke-opacity:1;stroke-dasharray:none"
         d="m 1008.5714,-2030.495 0,854.2858"
         id="path12568"
         inkscape:connector-curvature="0" />
      <path
         inkscape:connector-curvature="0"
         id="path12570"
         d="m 1308.5714,-2030.495 0,854.2858"
         style="fill:none;stroke:#666666;stroke-width:5;stroke-linecap:butt;stroke-linejoin:miter;stroke-miterlimit:4;stroke-opacity:1;stroke-dasharray:none" />
      <path
         style="fill:none;stroke:#666666;stroke-width:5;stroke-linecap:butt;stroke-linejoin:miter;stroke-miterlimit:4;stroke-opacity:1;stroke-dasharray:none"
         d="m 1307.3214,-2030.495 0,854.2858"
         id="path12572"
         inkscape:connector-curvature="0" />
      <path
         inkscape:connector-curvature="0"
         id="path12574"
         d="m 709.82141,-2030.495 0,854.2858"
         style="fill:none;stroke:#666666;stroke-width:5;stroke-linecap:butt;stroke-linejoin:miter;stroke-miterlimit:4;stroke-opacity:1;stroke-dasharray:none" />
      <path
         inkscape:connector-curvature="0"
         id="path12580"
         d="m 409.57679,-1784.3579 1197.98921,0"
         style="fill:none;stroke:#666666;stroke-width:5;stroke-linecap:butt;stroke-linejoin:miter;stroke-miterlimit:4;stroke-opacity:1;stroke-dasharray:none" />
      <path
         style="fill:none;stroke:#666666;stroke-width:5;stroke-linecap:butt;stroke-linejoin:miter;stroke-miterlimit:4;stroke-opacity:1;stroke-dasharray:none"
         d="m 409.57679,-1524.3579 1197.98921,0"
         id="path12582"
         inkscape:connector-curvature="0" />
      <path
         inkscape:connector-curvature="0"
         id="path12584"
         d="m 409.57679,-1284.3579 1197.98921,0"
         style="fill:none;stroke:#666666;stroke-width:5;stroke-linecap:butt;stroke-linejoin:miter;stroke-miterlimit:4;stroke-opacity:1;stroke-dasharray:none" />
      <rect
         style="fill:none;stroke:#000000;stroke-width:10;stroke-miterlimit:4;stroke-opacity:1;stroke-dasharray:none;stroke-dashoffset:0"
         id="rect12586"
         width="1014.3886"
         height="187.49095"
         x="502.80566"
         y="-1283.6487" />
      <path
         style="fill:none;stroke:#000000;stroke-width:10;stroke-linecap:butt;stroke-linejoin:miter;stroke-miterlimit:4;stroke-opacity:1;stroke-dasharray:none;marker-end:url(#Arrow1Mend)"
         d="m 1516.2857,-1191.3521 c 232.3776,-8.3514 304.9896,-38.7895 311.663,-474.0793"
         id="path12588"
         inkscape:connector-curvature="0"
         sodipodi:nodetypes="cc" />
    </g>
    <g
       transform="matrix(1.4160671,0,0,1.4160671,-2535.6965,988.76801)"
       id="g15616">
      <rect
         y="-672.29279"
         x="1826.071"
         height="37.797722"
         width="1059.2865"
         id="rect15594"
         style="fill:#966464;fill-opacity:1;stroke:none" />
      <path
         sodipodi:nodetypes="cssssssscc"
         inkscape:connector-curvature="0"
         id="path15592"
         d="m 2877.0053,-850.1314 c 2.2299,67.189 -17.8338,32.7366 -43.1208,80.4886 -25.2872,47.7519 -69.9686,-42.0806 -140.5318,-36.5484 -55.7313,4.3694 -74.8404,41.0503 -137.3461,56.4061 -62.5057,15.3556 -133.5455,-42.5573 -205.7527,-40.1609 -72.2073,2.3964 -107.1453,69.544 -169.7744,58.3414 -62.6291,-11.2028 -72.3299,-83.4204 -155.899,-69.5437 -54.2966,9.016 -113.2829,86.1673 -140.9234,40.172 -27.6404,-45.9954 -50.3642,-21.9662 -52.5941,-89.1551 z"
         style="fill:url(#radialGradient15621);fill-opacity:1;stroke:none" />
      <rect
         y="-854.54907"
         x="1829.0481"
         height="220.72032"
         width="1053.3323"
         id="rect15612"
         style="fill:none;stroke:#000000;stroke-width:11.05634403;stroke-miterlimit:4;stroke-opacity:1;stroke-dasharray:none;stroke-dashoffset:0" />
    </g>
    <path
       inkscape:connector-curvature="0"
       id="path15639"
       d="m 802.79022,-121.85953 0,147.682323"
       style="fill:none;stroke:#000000;stroke-width:4.61507225;stroke-linecap:butt;stroke-linejoin:miter;stroke-miterlimit:4;stroke-opacity:1;stroke-dasharray:none;marker-start:url(#Arrow1Mstart);marker-end:url(#Arrow1Mend)" />
    <g
       id="g16772"
       transform="matrix(0.36609675,0,0,0.36609675,377.53503,-547.79055)">
      <g
         word-spacing="normal"
         letter-spacing="normal"
         font-size-adjust="none"
         font-stretch="normal"
         font-weight="normal"
         font-variant="normal"
         font-style="normal"
         stroke-miterlimit="10.433"
         xml:space="preserve"
         transform="matrix(4.2570301,0,0,-4.2570301,-744.98027,3159.7442)"
         id="content"
         style="font-style:normal;font-variant:normal;font-weight:normal;font-stretch:normal;letter-spacing:normal;word-spacing:normal;text-anchor:start;fill:none;stroke:#000000;stroke-linecap:butt;stroke-linejoin:miter;stroke-miterlimit:10.43299961;stroke-opacity:1;stroke-dasharray:none;stroke-dashoffset:0"><path
           id="path16775"
           d="m 469.82,440.23 0,0 0,0.01 0,0 0,0.01 -0.01,0.02 0,0.01 0,0.02 0,0.02 0,0.02 -0.01,0.02 0,0.02 -0.01,0.02 -0.01,0.02 -0.01,0.03 -0.01,0.02 -0.01,0.03 -0.01,0.02 -0.02,0.03 -0.02,0.02 -0.02,0.02 -0.02,0.03 -0.01,0.01 -0.01,0.01 -0.02,0.01 -0.01,0.01 -0.02,0.01 -0.01,0.01 -0.02,0.01 -0.01,0.01 -0.02,0.01 -0.02,0.01 -0.02,0 -0.02,0.01 -0.02,0.01 -0.02,0 -0.02,0.01 -0.02,0.01 -0.03,0 -0.02,0 -0.03,0.01 -0.02,0 -0.03,0 -0.03,0.01 -0.02,0 -0.03,0 c -1.16,0 -4.79,-0.41 -6.08,-0.5 -0.41,-0.05 -0.96,-0.1 -0.96,-1 0,-0.6 0.46,-0.6 1.21,-0.6 2.39,0 2.48,-0.34 2.48,-0.84 l -0.15,-1 -7.22,-28.7 c -0.21,-0.69 -0.21,-0.8 -0.21,-1.1 0,-1.14 1,-1.39 1.46,-1.39 0.79,0 1.59,0.6 1.84,1.3 l 0.94,3.78 1.11,4.48 c 0.29,1.1 0.59,2.19 0.84,3.35 0.1,0.3 0.5,1.94 0.55,2.23 0.14,0.46 1.69,3.25 3.39,4.6 1.09,0.79 2.64,1.73 4.78,1.73 2.14,0 2.69,-1.69 2.69,-3.48 0,-2.69 -1.89,-8.13 -3.1,-11.16 -0.39,-1.16 -0.64,-1.75 -0.64,-2.75 0,-2.33 1.74,-4.08 4.08,-4.08 4.69,0 6.53,7.27 6.53,7.67 0,0.5 -0.45,0.5 -0.59,0.5 -0.5,0 -0.5,-0.15 -0.75,-0.9 -0.75,-2.64 -2.34,-6.17 -5.08,-6.17 -0.86,0 -1.2,0.5 -1.2,1.64 0,1.25 0.45,2.45 0.9,3.54 0.8,2.14 3.04,8.07 3.04,10.96 0,3.23 -2,5.32 -5.74,5.32 -3.14,0 -5.53,-1.53 -7.37,-3.82 z"
           inkscape:connector-curvature="0"
           style="fill:#000000;stroke-width:0" /><path
           id="path16777"
           d="m 500.68,394.25 0,0.02 0,0.03 0,0.01 0,0.02 0,0.01 -0.01,0.02 0,0.01 -0.01,0.02 -0.01,0.02 -0.01,0.02 -0.01,0.02 -0.02,0.03 -0.01,0.02 -0.02,0.03 -0.02,0.03 -0.03,0.03 -0.02,0.03 -0.03,0.04 -0.02,0.02 -0.01,0.02 -0.02,0.02 -0.02,0.02 -0.02,0.02 -0.02,0.03 -0.02,0.02 -0.02,0.02 -0.02,0.03 -0.03,0.02 -0.02,0.03 -0.03,0.03 -0.03,0.03 -0.02,0.03 -0.03,0.03 -0.03,0.03 -0.03,0.03 -0.03,0.03 -0.04,0.04 -0.03,0.03 -0.04,0.04 -0.03,0.03 -0.04,0.04 -0.04,0.04 c -6.22,6.28 -7.81,15.69 -7.81,23.31 0,8.67 1.89,17.35 8.01,23.56 0.64,0.61 0.64,0.71 0.64,0.86 0,0.35 -0.18,0.49 -0.48,0.49 -0.5,0 -4.99,-3.38 -7.92,-9.7 -2.55,-5.49 -3.14,-11.02 -3.14,-15.21 0,-3.89 0.54,-9.9 3.28,-15.54 2.98,-6.13 7.28,-9.36 7.78,-9.36 0.3,0 0.48,0.14 0.48,0.5 z"
           inkscape:connector-curvature="0"
           style="fill:#000000;stroke-width:0" /><path
           id="path16779"
           d="m 520.16,421.25 0.03,0.13 0.03,0.15 0.04,0.16 0.05,0.18 0.05,0.19 0.06,0.21 0.07,0.22 0.07,0.22 0.08,0.23 0.09,0.24 0.09,0.25 0.11,0.24 0.11,0.25 0.12,0.25 0.13,0.25 0.13,0.25 0.15,0.24 0.16,0.24 0.16,0.23 0.18,0.22 0.19,0.22 0.2,0.2 0.21,0.19 0.22,0.18 0.23,0.16 0.24,0.14 0.13,0.07 0.13,0.06 0.13,0.05 0.14,0.05 0.14,0.05 0.14,0.04 0.15,0.03 0.15,0.03 0.15,0.02 0.15,0.02 0.16,0.01 0.16,0 c 0.25,0 1.44,0 2.49,-0.64 -1.39,-0.25 -2.39,-1.5 -2.39,-2.69 0,-0.79 0.54,-1.75 1.89,-1.75 1.09,0 2.69,0.89 2.69,2.89 0,2.6 -2.94,3.28 -4.63,3.28 -2.89,0 -4.64,-2.64 -5.23,-3.78 -1.25,3.28 -3.94,3.78 -5.38,3.78 -5.19,0 -8.03,-6.42 -8.03,-7.67 0,-0.5 0.5,-0.5 0.61,-0.5 0.39,0 0.55,0.11 0.64,0.55 1.69,5.28 4.98,6.53 6.67,6.53 0.96,0 2.69,-0.44 2.69,-3.33 0,-1.54 -0.84,-4.89 -2.69,-11.86 -0.8,-3.09 -2.53,-5.18 -4.73,-5.18 -0.3,0 -1.44,0 -2.49,0.65 1.25,0.24 2.35,1.28 2.35,2.69 0,1.34 -1.1,1.73 -1.85,1.73 -1.5,0 -2.75,-1.29 -2.75,-2.89 0,-2.28 2.5,-3.28 4.69,-3.28 3.3,0 5.08,3.49 5.24,3.78 0.59,-1.84 2.39,-3.78 5.37,-3.78 5.14,0 7.98,6.42 7.98,7.67 0,0.5 -0.45,0.5 -0.61,0.5 -0.43,0 -0.54,-0.2 -0.64,-0.54 -1.64,-5.33 -5.03,-6.53 -6.62,-6.53 -1.95,0 -2.75,1.59 -2.75,3.29 0,1.1 0.3,2.19 0.86,4.38 z"
           inkscape:connector-curvature="0"
           style="fill:#000000;stroke-width:0" /><path
           id="path16781"
           d="m 542.06,406.25 0,0.3 -0.01,0.3 -0.02,0.29 -0.02,0.28 -0.04,0.27 -0.03,0.26 -0.05,0.26 -0.05,0.24 -0.06,0.24 -0.06,0.23 -0.07,0.22 -0.08,0.21 -0.08,0.2 -0.09,0.19 -0.1,0.19 -0.1,0.17 -0.11,0.16 -0.11,0.16 -0.11,0.14 -0.13,0.13 -0.13,0.13 -0.13,0.11 -0.14,0.1 -0.14,0.1 -0.15,0.08 -0.16,0.07 -0.15,0.06 -0.17,0.05 -0.17,0.04 -0.17,0.03 -0.17,0.01 -0.18,0.01 c -1.65,0 -2.65,-1.25 -2.65,-2.64 0,-1.34 1,-2.64 2.65,-2.64 0.59,0 1.24,0.2 1.74,0.64 0.15,0.11 0.21,0.16 0.26,0.16 0.04,0 0.09,-0.05 0.09,-0.75 0,-3.69 -1.74,-6.68 -3.39,-8.32 -0.55,-0.54 -0.55,-0.65 -0.55,-0.79 0,-0.36 0.25,-0.55 0.5,-0.55 0.55,0 4.53,3.83 4.53,9.66 z"
           inkscape:connector-curvature="0"
           style="fill:#000000;stroke-width:0" /><path
           id="path16783"
           d="m 564.3,426.12 h 4.68 c 0.99,0 1.49,0 1.49,1 0,0.55 -0.5,0.55 -1.39,0.55 h -4.39 c 1.79,7.08 2.04,8.08 2.04,8.37 0,0.85 -0.59,1.35 -1.43,1.35 -0.16,0 -1.55,-0.05 -2,-1.8 l -1.94,-7.92 h -4.69 c -1,0 -1.5,0 -1.5,-0.94 0,-0.61 0.41,-0.61 1.41,-0.61 h 4.37 c -3.57,-14.14 -3.78,-14.98 -3.78,-15.89 0,-2.69 1.89,-4.58 4.58,-4.58 5.08,0 7.92,7.27 7.92,7.67 0,0.5 -0.39,0.5 -0.59,0.5 -0.46,0 -0.5,-0.15 -0.75,-0.7 -2.14,-5.17 -4.78,-6.37 -6.47,-6.37 -1.05,0 -1.55,0.65 -1.55,2.29 0,1.19 0.1,1.55 0.3,2.39 z"
           inkscape:connector-curvature="0"
           style="fill:#000000;stroke-width:0" /><path
           id="path16785"
           d="m 586.42,418.65 0,0.37 0,0.39 -0.01,0.39 -0.02,0.41 -0.04,0.84 -0.06,0.88 -0.08,0.92 -0.11,0.95 -0.13,0.97 -0.16,1.01 -0.2,1.02 -0.23,1.03 -0.27,1.05 -0.3,1.06 -0.35,1.07 -0.39,1.07 -0.22,0.53 -0.22,0.53 -0.24,0.53 -0.25,0.53 c -2.98,6.12 -7.26,9.36 -7.76,9.36 -0.3,0 -0.5,-0.19 -0.5,-0.49 0,-0.15 0,-0.25 0.93,-1.15 4.89,-4.92 7.74,-12.85 7.74,-23.27 0,-8.51 -1.85,-17.28 -8.03,-23.56 -0.64,-0.59 -0.64,-0.7 -0.64,-0.84 0,-0.3 0.2,-0.5 0.5,-0.5 0.5,0 4.96,3.39 7.92,9.71 2.53,5.47 3.12,11 3.12,15.19 z"
           inkscape:connector-curvature="0"
           style="fill:#000000;stroke-width:0" /></g>    </g>
    <path
       style="fill:none;stroke:#000000;stroke-width:8.08128643;stroke-linecap:butt;stroke-linejoin:miter;stroke-miterlimit:4;stroke-opacity:1;stroke-dasharray:none;marker-start:none;marker-end:url(#Arrow1Mend)"
       d="m 745.86733,96.130613 0,99.060947"
       id="path17352"
       inkscape:connector-curvature="0" />
  </g>
</svg>
